<svg width="14" height="14" fill="none" xmlns="http://www.w3.org/2000/svg"><path d="M6.96 0c1.88 0 3.63.75 4.91 2.06C13.18 3.37 14 5.09 14 6.96c0 3.82-3.19 6.94-7.04 6.94-1.15 0-2.28-.31-3.31-.84L0 14l.96-3.6a6.98 6.98 0 01-.93-3.47C.03 3.12 3.15 0 6.96 0zM4.03 11.9c.9.53 1.9.81 2.93.81 3.19 0 5.85-2.59 5.85-5.75 0-1.56-.66-3-1.75-4.09C9.96 1.78 8.53 1.18 7 1.18c-3.19 0-5.79 2.6-5.79 5.75 0 1.1.32 2.16.88 3.1l.16.22-.6 2.12 2.19-.59.19.12zm4.93-4.06c.16.06 1 .47 1.19.56.16.1.28.13.31.22.07.06.07.41-.09.81-.16.41-.84.78-1.16.82-.56.09-1 .06-2.09-.44-1.75-.75-2.87-2.5-2.97-2.6-.09-.12-.69-.93-.69-1.81 0-.84.44-1.25.6-1.44.15-.18.34-.21.47-.21h.31c.01 0 .02-.01.03-.01.11 0 .23 0 .38.32.12.34.5 1.19.53 1.28.03.09.06.19 0 .31-.14.3-.3.45-.41.56-.13.14-.2.21-.09.38.68 1.16 1.34 1.56 2.37 2.06.16.1.25.06.38-.03.09-.12.43-.53.53-.69.12-.18.25-.15.4-.09z" fill="#707070" fill-rule="evenodd"/></svg>